<?xml version="1.0" standalone="no"?>
<!DOCTYPE svg PUBLIC "-//W3C//DTD SVG 20010904//EN"
 "http://www.w3.org/TR/2001/REC-SVG-20010904/DTD/svg10.dtd">
<svg version="1.0" xmlns="http://www.w3.org/2000/svg"
 width="396.000000pt" height="121.000000pt" viewBox="0 0 396.000000 121.000000"
 preserveAspectRatio="xMidYMid meet">

<g transform="translate(0.000000,121.000000) scale(0.100000,-0.100000)"
fill="#000000" stroke="none">
<path d="M390 960 l105 -99 72 0 c69 -1 75 -3 113 -37 l40 -36 0 -319 0 -319
95 0 95 0 0 350 0 351 -92 97 c-51 53 -97 100 -103 104 -5 4 -104 8 -220 8
l-210 0 105 -100z"/>
<path d="M938 961 l-3 -99 70 -5 c65 -6 71 -9 102 -44 l32 -38 1 -208 0 -207
91 -98 c51 -53 96 -99 100 -100 5 -2 9 149 9 338 l0 342 -102 109 -102 109
-97 0 -98 0 -3 -99z"/>
<path d="M2993 951 l-103 -109 0 -346 0 -346 100 0 100 0 0 115 0 115 150 0
149 0 -57 82 -58 83 -92 3 -92 3 0 117 0 118 38 37 38 37 120 0 120 0 38 -38
37 -39 -1 -316 -1 -317 101 0 100 0 0 346 0 346 -102 109 -102 109 -191 0
-190 -1 -102 -108z"/>
<path d="M1495 938 l-107 -113 6 -200 c3 -110 6 -262 6 -337 l0 -138 223 0
222 0 110 110 110 110 -228 0 -227 0 0 75 0 75 161 0 c88 0 159 4 157 8 -1 5
-21 36 -43 70 l-40 62 -117 0 -118 0 0 90 0 90 168 0 167 0 105 105 105 105
-277 0 -276 0 -107 -112z"/>
<path d="M2237 952 l-97 -97 0 -353 0 -352 345 0 345 0 0 235 0 235 -95 0 -95
0 -70 -93 c-38 -52 -70 -96 -70 -99 0 -3 30 -5 68 -4 l67 1 3 -42 3 -43 -155
0 -156 0 0 260 0 260 158 0 157 0 95 95 95 95 -250 0 -250 0 -98 -98z"/>
<path d="M290 603 l1 -238 99 -105 100 -105 0 343 0 342 -100 0 -100 0 0 -237z"/>
</g>
</svg>
